<?xml version="1.0" encoding="UTF-8" standalone="no"?>
<svg
   xmlns:dc="http://purl.org/dc/elements/1.1/"
   xmlns:cc="http://creativecommons.org/ns#"
   xmlns:rdf="http://www.w3.org/1999/02/22-rdf-syntax-ns#"
   xmlns:svg="http://www.w3.org/2000/svg"
   xmlns="http://www.w3.org/2000/svg"
   xmlns:sodipodi="http://sodipodi.sourceforge.net/DTD/sodipodi-0.dtd"
   xmlns:inkscape="http://www.inkscape.org/namespaces/inkscape"
   width="800px"
   height="800px"
   viewBox="0 0 512 512"
   version="1.1"
   id="svg2474"
   sodipodi:docname="search_icon.svg"
   inkscape:version="1.0.2 (1.0.2+r75+1)">
  <metadata
     id="metadata2480">
    <rdf:RDF>
      <cc:Work
         rdf:about="">
        <dc:format>image/svg+xml</dc:format>
        <dc:type
           rdf:resource="http://purl.org/dc/dcmitype/StillImage" />
        <dc:title>zoom-in</dc:title>
      </cc:Work>
    </rdf:RDF>
  </metadata>
  <defs
     id="defs2478" />
  <sodipodi:namedview
     pagecolor="#505050"
     bordercolor="#eeeeee"
     borderopacity="1"
     objecttolerance="10"
     gridtolerance="10"
     guidetolerance="10"
     inkscape:pageopacity="0"
     inkscape:pageshadow="2"
     inkscape:window-width="1861"
     inkscape:window-height="1025"
     id="namedview2476"
     showgrid="false"
     inkscape:zoom="0.3800699"
     inkscape:cx="-157.12231"
     inkscape:cy="527.19702"
     inkscape:window-x="59"
     inkscape:window-y="27"
     inkscape:window-maximized="1"
     inkscape:current-layer="svg2474" />
  <title
     id="title2468">zoom-in</title>
  <g
     id="Page-1"
     stroke="none"
     stroke-width="1"
     fill="none"
     fill-rule="evenodd">
    <g
       id="zoom-in"
       fill="#000000"
       transform="translate(42.666667, 42.666667)">
      <path
         d="m 170.66667,0 c 94.10133,0 170.66666,76.565333 170.66666,170.66667 0,39.38133 -13.54666,75.584 -36.01066,104.46933 v 0 L 426.624,396.45867 396.45867,426.624 275.136,305.32267 c -28.88533,22.464 -65.088,36.01066 -104.46933,36.01066 C 76.565333,341.33333 0,264.768 0,170.66667 0,76.565333 76.565333,0 170.66667,0 Z m 0,42.666667 c -70.592,0 -128.000003,57.408003 -128.000003,128.000003 0,70.592 57.408003,128 128.000003,128 70.592,0 128,-57.408 128,-128 0,-70.592 -57.408,-128.000003 -128,-128.000003 z"
         id="path2470"
         sodipodi:nodetypes="sssccccssssssss" />
    </g>
  </g>
</svg>
